<?xml version="1.0" encoding="utf-8"?>
<!-- Generator: Adobe Illustrator 24.1.0, SVG Export Plug-In . SVG Version: 6.00 Build 0)  -->
<svg version="1.1" id="Layer_1" xmlns="http://www.w3.org/2000/svg" xmlns:xlink="http://www.w3.org/1999/xlink" x="0px" y="0px"
	 viewBox="28 35 130 130" style="enable-background:new 0 0 188.08 188.08;" xml:space="preserve">
<style type="text/css">
	.st1{fill:url(#SVGID_2_);}
	.st2{fill:url(#SVGID_3_);}
	.st3{fill:url(#SVGID_4_);}
	.st4{fill:#414042;}
	.st5{fill:url(#SVGID_5_);}
	.st6{fill:url(#SVGID_6_);}
	.st7{fill:url(#SVGID_7_);}
	.st8{fill:url(#SVGID_8_);}
	.st9{fill:#3B103C;}
	.st10{fill:#92278F;}
	.st11{fill:#58595B;}
	.st12{fill:#FFFFFF;}
	.st13{fill:url(#SVGID_9_);}
	.st14{fill:url(#SVGID_10_);}
</style>
<g>
	<g>
		<linearGradient id="SVGID_2_" gradientUnits="userSpaceOnUse" x1="53.3556" y1="60.3075" x2="134.7215" y2="60.3075">
			<stop  offset="0" style="stop-color:#FFFFFF"/>
			<stop  offset="0.0458" style="stop-color:#F8F8F8"/>
			<stop  offset="0.1122" style="stop-color:#E5E5E5"/>
			<stop  offset="0.1911" style="stop-color:#C5C5C6"/>
			<stop  offset="0.2797" style="stop-color:#999A9B"/>
			<stop  offset="0.3752" style="stop-color:#616264"/>
			<stop  offset="0.39" style="stop-color:#58595B"/>
			<stop  offset="0.3988" style="stop-color:#646566"/>
			<stop  offset="0.4301" style="stop-color:#88898A"/>
			<stop  offset="0.4654" style="stop-color:#A8A9AA"/>
			<stop  offset="0.5044" style="stop-color:#C4C4C5"/>
			<stop  offset="0.5484" style="stop-color:#DADADA"/>
			<stop  offset="0.5998" style="stop-color:#EBEBEB"/>
			<stop  offset="0.6634" style="stop-color:#F6F6F6"/>
			<stop  offset="0.7525" style="stop-color:#FDFDFD"/>
			<stop  offset="1" style="stop-color:#FFFFFF"/>
		</linearGradient>
		<path class="st1" d="M118.45,35.9h-16.27v16.27h16.27v16.27H69.63V52.17H85.9V35.9H69.63c-8.99,0-16.27,7.29-16.27,16.27v0v32.55
			h65.09h0c8.99,0,16.27-7.29,16.27-16.27V52.17C134.72,43.18,127.44,35.9,118.45,35.9z"/>
		<linearGradient id="SVGID_3_" gradientUnits="userSpaceOnUse" x1="94.0386" y1="100.9905" x2="94.0386" y2="35.8978">
			<stop  offset="0" style="stop-color:#58595B"/>
			<stop  offset="0.2118" style="stop-color:#878889"/>
			<stop  offset="0.4731" style="stop-color:#BABBBC"/>
			<stop  offset="0.7012" style="stop-color:#E0E0E0"/>
			<stop  offset="0.8845" style="stop-color:#F7F7F7"/>
			<stop  offset="1" style="stop-color:#FFFFFF"/>
		</linearGradient>
		<polygon class="st2" points="85.9,35.9 85.9,100.99 102.18,84.72 102.18,52.17 		"/>
	</g>
	<g>
		<g>
			<rect x="52.98" y="106.56" class="st12" width="0.76" height="45.26"/>
		</g>
		<g>
			<rect x="134.34" y="106.56" class="st12" width="0.76" height="45.26"/>
		</g>
		<g>
			<g>
				<g>
					<path class="st12" d="M61.1,114.35c-0.29,0-0.56-0.02-0.81-0.07s-0.47-0.13-0.66-0.24c-0.19-0.11-0.33-0.25-0.44-0.43
						c-0.11-0.18-0.16-0.4-0.16-0.66c0-0.23,0.05-0.45,0.15-0.65c0.1-0.2,0.23-0.39,0.39-0.56c0.16-0.17,0.33-0.33,0.53-0.46
						c0.2-0.14,0.39-0.26,0.58-0.36c0.19-0.1,0.37-0.19,0.53-0.26c0.17-0.07,0.3-0.13,0.4-0.16l-0.08-0.76l0.83-0.18
						c0,0.03,0.01,0.09,0.02,0.18c0.01,0.09,0.02,0.21,0.03,0.33c0.01,0.13,0.03,0.26,0.04,0.4c0.02,0.14,0.03,0.27,0.04,0.4
						s0.02,0.24,0.03,0.33c0.01,0.09,0.02,0.15,0.02,0.17c0.06,0.46,0.11,0.84,0.16,1.13c0.05,0.29,0.09,0.52,0.12,0.7
						c0.04,0.17,0.06,0.3,0.09,0.37c0.02,0.08,0.04,0.13,0.05,0.15v-0.01c0.05,0.11,0.1,0.2,0.16,0.27
						c0.06,0.07,0.13,0.13,0.21,0.17c0.08,0.04,0.18,0.07,0.28,0.09c0.11,0.02,0.23,0.03,0.36,0.03h0.11v0.82h-0.11
						c-0.13,0-0.29-0.01-0.46-0.03c-0.18-0.02-0.35-0.07-0.52-0.15h0c-0.27-0.12-0.5-0.34-0.69-0.66
						C61.83,114.31,61.43,114.35,61.1,114.35z M61.57,111.39c-0.09,0.04-0.19,0.08-0.31,0.14c-0.12,0.05-0.24,0.11-0.37,0.18
						c-0.13,0.07-0.26,0.14-0.39,0.23c-0.13,0.08-0.24,0.17-0.34,0.27c-0.1,0.1-0.18,0.2-0.24,0.31c-0.06,0.11-0.09,0.23-0.09,0.36
						c0,0.13,0.04,0.24,0.11,0.32c0.07,0.08,0.17,0.15,0.28,0.2c0.12,0.05,0.25,0.09,0.4,0.11c0.15,0.02,0.3,0.03,0.45,0.03
						c0.16,0,0.33-0.01,0.5-0.03c0.17-0.02,0.32-0.04,0.45-0.07c-0.05-0.24-0.1-0.54-0.15-0.89c-0.05-0.35-0.1-0.75-0.16-1.2
						L61.57,111.39z"/>
					<path class="st12" d="M63.87,114.26h0.11c0.18,0,0.38-0.01,0.59-0.03c0.21-0.02,0.43-0.04,0.64-0.08
						c0.21-0.03,0.42-0.08,0.62-0.13c0.2-0.05,0.38-0.11,0.53-0.17c-0.15-0.12-0.32-0.26-0.48-0.43c-0.17-0.17-0.33-0.34-0.49-0.53
						c-0.16-0.18-0.31-0.37-0.46-0.55c-0.14-0.18-0.27-0.35-0.37-0.49l0.05-0.65c0.22-0.17,0.44-0.31,0.66-0.43
						c0.22-0.11,0.43-0.2,0.64-0.27c0.21-0.07,0.42-0.11,0.63-0.14c0.21-0.03,0.42-0.04,0.63-0.04c0.26,0,0.52,0.02,0.77,0.07
						c0.25,0.05,0.48,0.12,0.69,0.2c0.17,0.08,0.31,0.16,0.41,0.25c0.11,0.09,0.19,0.18,0.25,0.27c0.06,0.09,0.1,0.17,0.12,0.26
						c0.02,0.08,0.03,0.15,0.03,0.21c0,0.03,0.01,0.06,0.01,0.08c0,0.13-0.04,0.29-0.12,0.48c-0.08,0.19-0.19,0.39-0.34,0.6
						c-0.15,0.21-0.32,0.42-0.51,0.62c-0.19,0.2-0.38,0.38-0.58,0.52c0.3,0.12,0.63,0.2,1,0.26c0.36,0.06,0.73,0.09,1.1,0.09h0.11
						v0.82h-0.11c-0.56,0-1.07-0.05-1.54-0.16c-0.47-0.1-0.91-0.27-1.31-0.5c-0.23,0.11-0.47,0.2-0.74,0.29
						c-0.26,0.08-0.53,0.15-0.81,0.21c-0.28,0.05-0.56,0.1-0.83,0.12c-0.28,0.03-0.54,0.04-0.8,0.04h-0.11V114.26z M67.17,113.44
						c0.1-0.05,0.21-0.13,0.32-0.22c0.11-0.09,0.22-0.2,0.33-0.32c0.11-0.12,0.21-0.24,0.31-0.37c0.1-0.13,0.18-0.25,0.26-0.37
						c0.07-0.12,0.13-0.23,0.17-0.33c0.04-0.1,0.07-0.19,0.07-0.25c-0.21-0.14-0.45-0.24-0.7-0.31s-0.52-0.11-0.8-0.11
						c-0.26,0-0.54,0.04-0.82,0.11c-0.28,0.08-0.56,0.19-0.84,0.35c0.16,0.19,0.31,0.38,0.46,0.55c0.14,0.17,0.28,0.33,0.42,0.48
						c0.14,0.15,0.27,0.29,0.41,0.42C66.88,113.21,67.02,113.33,67.17,113.44z"/>
					<path class="st12" d="M74.9,114.26v0.82H69.9v-0.82H74.9z"/>
					<path class="st12" d="M79.68,114.26v0.82h-4.99v-0.82H79.68z"/>
					<path class="st12" d="M79.57,114.26c0.2,0,0.39-0.04,0.56-0.12c0.17-0.08,0.32-0.18,0.45-0.32c0.14-0.13,0.26-0.28,0.36-0.46
						c0.11-0.17,0.2-0.36,0.28-0.55c0.08-0.19,0.15-0.38,0.2-0.58c0.05-0.19,0.1-0.38,0.13-0.55l0.83,0.16
						c-0.03,0.09-0.06,0.21-0.1,0.34c-0.04,0.13-0.08,0.27-0.11,0.41c-0.04,0.14-0.06,0.29-0.09,0.44
						c-0.02,0.15-0.04,0.29-0.04,0.42c0,0.11,0.01,0.21,0.03,0.31c0.02,0.1,0.05,0.2,0.11,0.27c0.05,0.08,0.12,0.14,0.21,0.19
						c0.09,0.05,0.2,0.07,0.33,0.07c0.19,0,0.35-0.05,0.5-0.14s0.28-0.22,0.4-0.37c0.12-0.15,0.22-0.33,0.3-0.53
						c0.09-0.2,0.16-0.4,0.22-0.6c0.06-0.21,0.12-0.41,0.16-0.61c0.04-0.2,0.07-0.38,0.1-0.53c0.15,0.03,0.28,0.05,0.41,0.08
						c0.12,0.02,0.26,0.05,0.39,0.07v0.01c-0.01,0.07-0.03,0.17-0.06,0.3c-0.02,0.12-0.04,0.25-0.07,0.4
						c-0.02,0.14-0.04,0.28-0.05,0.43c-0.01,0.14-0.02,0.27-0.02,0.39c0,0.15,0.01,0.29,0.04,0.42c0.02,0.14,0.07,0.25,0.14,0.36
						c0.07,0.1,0.16,0.19,0.27,0.25c0.11,0.06,0.26,0.09,0.43,0.09c0.15,0,0.29-0.03,0.4-0.08c0.11-0.05,0.21-0.13,0.28-0.22
						c0.07-0.09,0.13-0.2,0.16-0.33c0.03-0.12,0.05-0.26,0.05-0.41c0-0.19-0.02-0.4-0.07-0.62c-0.05-0.22-0.11-0.44-0.18-0.66
						c-0.07-0.22-0.14-0.42-0.22-0.61c-0.08-0.19-0.15-0.35-0.21-0.47l0.73-0.39c0.03,0.06,0.07,0.15,0.12,0.26
						c0.05,0.11,0.11,0.24,0.16,0.38c0.06,0.14,0.12,0.3,0.18,0.47c0.06,0.17,0.11,0.34,0.16,0.52c0.05,0.18,0.09,0.37,0.12,0.55
						c0.03,0.19,0.04,0.37,0.04,0.55c0,0.28-0.04,0.54-0.12,0.77c-0.08,0.23-0.2,0.43-0.36,0.59c-0.16,0.16-0.36,0.29-0.6,0.38
						c-0.23,0.08-0.5,0.13-0.81,0.13c-0.01,0-0.02,0-0.04,0c-0.13,0-0.25-0.02-0.39-0.07c-0.13-0.04-0.26-0.11-0.38-0.18
						c-0.12-0.08-0.24-0.17-0.35-0.28c-0.11-0.11-0.2-0.22-0.28-0.34c-0.23,0.27-0.48,0.48-0.75,0.64
						c-0.27,0.16-0.54,0.23-0.83,0.23c-0.12,0-0.25-0.02-0.38-0.06c-0.13-0.04-0.26-0.09-0.38-0.17c-0.12-0.07-0.24-0.17-0.34-0.27
						c-0.1-0.11-0.19-0.24-0.25-0.38c-0.12,0.12-0.24,0.23-0.36,0.33c-0.12,0.1-0.26,0.19-0.4,0.26s-0.3,0.12-0.47,0.16
						c-0.17,0.04-0.36,0.06-0.56,0.06h-0.11v-0.82H79.57z"/>
					<path class="st12" d="M88.6,117.96c0.53-0.12,1.02-0.28,1.44-0.48c0.43-0.21,0.8-0.44,1.1-0.7c0.31-0.26,0.55-0.53,0.73-0.83
						c0.18-0.29,0.29-0.58,0.33-0.86c-0.12,0-0.23,0.01-0.34,0.01c-0.17,0-0.36,0-0.57-0.01s-0.44-0.03-0.68-0.07
						c-0.24-0.04-0.45-0.1-0.65-0.18c-0.19-0.08-0.36-0.19-0.5-0.32c-0.14-0.14-0.25-0.3-0.33-0.5c-0.08-0.2-0.12-0.43-0.12-0.71
						c0-0.17,0.02-0.35,0.06-0.54c0.04-0.19,0.09-0.37,0.16-0.56c0.07-0.18,0.15-0.36,0.25-0.52c0.1-0.17,0.21-0.31,0.34-0.44
						c0.13-0.12,0.27-0.22,0.43-0.3c0.16-0.08,0.33-0.11,0.52-0.11c0.25,0,0.47,0.05,0.68,0.16c0.21,0.1,0.39,0.24,0.55,0.42
						c0.16,0.18,0.3,0.38,0.43,0.61c0.12,0.23,0.23,0.47,0.31,0.73c0.08,0.25,0.15,0.51,0.2,0.77c0.05,0.26,0.07,0.51,0.08,0.75
						h0.63v0.82H93c-0.05,0.34-0.15,0.66-0.28,0.96c-0.13,0.3-0.3,0.58-0.5,0.83c-0.2,0.25-0.43,0.49-0.68,0.7
						c-0.26,0.21-0.53,0.39-0.82,0.55c-0.29,0.16-0.6,0.29-0.93,0.4c-0.33,0.11-0.66,0.19-0.99,0.24L88.6,117.96z M90.8,111.66
						c-0.13,0-0.26,0.05-0.38,0.16c-0.13,0.11-0.24,0.24-0.34,0.4c-0.1,0.16-0.18,0.34-0.24,0.53c-0.06,0.19-0.09,0.37-0.09,0.54
						c0.02,0.17,0.07,0.31,0.16,0.43c0.09,0.11,0.21,0.2,0.35,0.27s0.3,0.12,0.47,0.16c0.17,0.03,0.35,0.06,0.53,0.07
						c0.18,0.01,0.36,0.02,0.53,0.02s0.33,0,0.46,0c0-0.16-0.02-0.33-0.04-0.52c-0.03-0.19-0.07-0.38-0.13-0.57
						c-0.06-0.19-0.13-0.37-0.21-0.55c-0.08-0.18-0.18-0.34-0.29-0.47c-0.11-0.14-0.23-0.25-0.36-0.33
						C91.09,111.7,90.95,111.66,90.8,111.66z"/>
					<path class="st12" d="M93.47,114.26h0.98c0.21,0,0.42-0.01,0.64-0.02c0.21-0.01,0.42-0.04,0.6-0.09
						c0.19-0.05,0.36-0.12,0.51-0.2c0.15-0.09,0.27-0.21,0.36-0.36c0.05-0.09,0.08-0.2,0.09-0.33c0-0.04,0-0.07,0-0.1
						c0-0.11-0.01-0.23-0.03-0.37c-0.02-0.14-0.06-0.3-0.11-0.47c-0.05-0.18-0.1-0.35-0.16-0.52c-0.06-0.17-0.12-0.34-0.18-0.51
						c-0.06-0.16-0.12-0.31-0.18-0.45l0.74-0.37c0.07,0.16,0.14,0.34,0.21,0.52c0.08,0.19,0.15,0.38,0.21,0.58s0.13,0.41,0.18,0.61
						c0.05,0.21,0.09,0.41,0.11,0.61c0.01,0.11,0.02,0.22,0.02,0.32c0,0.09-0.01,0.2-0.02,0.34c-0.01,0.14-0.06,0.29-0.13,0.46
						c-0.1,0.22-0.24,0.41-0.41,0.56c-0.17,0.15-0.37,0.27-0.6,0.36c-0.23,0.09-0.48,0.15-0.76,0.19c-0.28,0.04-0.57,0.06-0.88,0.06
						h-1.21V114.26z M95.75,108.53l-0.77,0.77l-0.78-0.77l0.77-0.77L95.75,108.53z M97.62,108.54l-0.76,0.77l-0.78-0.78l0.77-0.77
						L97.62,108.54z"/>
					<path class="st12" d="M101.82,115.11c-0.01,0-0.05,0-0.12-0.01c-0.07,0-0.15-0.01-0.25-0.03c-0.1-0.02-0.21-0.04-0.33-0.07
						c-0.12-0.03-0.24-0.08-0.37-0.14c-0.32-0.15-0.56-0.35-0.72-0.6c-0.16-0.25-0.24-0.54-0.24-0.89c0-0.3,0.07-0.61,0.21-0.93
						c0.14-0.32,0.35-0.65,0.62-0.99c0.11-0.13,0.23-0.26,0.35-0.38c0.13-0.12,0.24-0.23,0.34-0.33c-0.09-0.08-0.17-0.15-0.22-0.2
						c-0.05-0.05-0.09-0.08-0.12-0.11s-0.04-0.04-0.04-0.05c0,0-0.01-0.01-0.01-0.01h-0.01l0.56-0.6c0.05,0.04,0.11,0.1,0.19,0.18
						c0.08,0.08,0.17,0.16,0.28,0.26c0.1,0.1,0.21,0.2,0.33,0.32c0.11,0.11,0.23,0.23,0.33,0.35c0.41,0.47,0.73,0.92,0.94,1.34
						c0.21,0.42,0.32,0.8,0.32,1.15c0,0.34-0.08,0.64-0.23,0.88c-0.15,0.25-0.37,0.45-0.66,0.59c-0.11,0.05-0.22,0.09-0.33,0.13
						c-0.11,0.03-0.22,0.06-0.32,0.08c-0.1,0.02-0.2,0.03-0.28,0.04C101.96,115.1,101.88,115.11,101.82,115.11z M101.75,111.4
						c-0.11,0.09-0.23,0.21-0.37,0.36c-0.14,0.15-0.27,0.31-0.4,0.49c-0.13,0.18-0.23,0.37-0.32,0.56
						c-0.09,0.19-0.13,0.38-0.13,0.57c0,0.06,0.01,0.12,0.03,0.19c0.02,0.07,0.05,0.13,0.09,0.19c0.04,0.06,0.1,0.12,0.18,0.18
						s0.16,0.12,0.27,0.17h-0.01c0.07,0.04,0.15,0.06,0.22,0.08c0.07,0.02,0.14,0.04,0.21,0.05c0.06,0.01,0.12,0.02,0.17,0.02
						c0.05,0,0.09,0.01,0.12,0.01c0.03,0,0.08,0,0.14,0c0.06,0,0.13-0.01,0.2-0.02c0.07-0.01,0.15-0.03,0.23-0.04
						c0.08-0.02,0.15-0.05,0.22-0.08c0.15-0.08,0.27-0.17,0.36-0.28c0.09-0.11,0.14-0.25,0.14-0.43c0-0.24-0.11-0.54-0.34-0.9
						s-0.54-0.76-0.93-1.19L101.75,111.4z"/>
					<path class="st12" d="M104.77,117.96c0.53-0.12,1.02-0.28,1.44-0.48c0.43-0.21,0.8-0.44,1.1-0.7c0.31-0.26,0.55-0.53,0.73-0.83
						c0.18-0.29,0.29-0.58,0.33-0.86c-0.12,0-0.23,0.01-0.34,0.01c-0.17,0-0.36,0-0.57-0.01s-0.44-0.03-0.68-0.07
						c-0.24-0.04-0.45-0.1-0.65-0.18c-0.2-0.08-0.36-0.19-0.5-0.32c-0.14-0.14-0.25-0.3-0.33-0.5c-0.08-0.2-0.12-0.43-0.12-0.71
						c0-0.17,0.02-0.35,0.06-0.54c0.04-0.19,0.09-0.37,0.16-0.56c0.07-0.18,0.15-0.36,0.25-0.52c0.1-0.17,0.21-0.31,0.34-0.44
						c0.13-0.12,0.27-0.22,0.43-0.3c0.16-0.08,0.33-0.11,0.52-0.11c0.26,0,0.5,0.06,0.71,0.17c0.21,0.11,0.4,0.27,0.57,0.46
						c0.17,0.19,0.31,0.41,0.44,0.66c0.12,0.25,0.22,0.51,0.31,0.77c0.08,0.27,0.14,0.54,0.18,0.81s0.06,0.52,0.06,0.76
						c0,0.4-0.05,0.77-0.16,1.12c-0.11,0.35-0.26,0.68-0.45,0.98c-0.19,0.3-0.42,0.57-0.68,0.82c-0.26,0.24-0.55,0.46-0.87,0.65
						c-0.32,0.19-0.65,0.34-1.01,0.47c-0.36,0.12-0.72,0.22-1.09,0.28L104.77,117.96z M106.97,111.66c-0.13,0-0.26,0.05-0.39,0.16
						c-0.13,0.11-0.24,0.24-0.34,0.4c-0.1,0.16-0.18,0.34-0.24,0.53c-0.06,0.19-0.09,0.37-0.09,0.54c0.02,0.17,0.07,0.31,0.16,0.43
						c0.09,0.11,0.21,0.2,0.35,0.27c0.14,0.07,0.3,0.12,0.47,0.16c0.17,0.03,0.35,0.06,0.53,0.07s0.36,0.02,0.53,0.02s0.33,0,0.46,0
						c0-0.16-0.01-0.33-0.04-0.52c-0.03-0.19-0.07-0.38-0.13-0.57c-0.06-0.19-0.13-0.37-0.21-0.55c-0.08-0.18-0.18-0.34-0.29-0.47
						c-0.11-0.14-0.23-0.25-0.36-0.33C107.26,111.7,107.12,111.66,106.97,111.66z"/>
					<path class="st12" d="M112.87,114.83c0,0.29-0.04,0.57-0.13,0.85c-0.09,0.28-0.21,0.54-0.36,0.8c-0.15,0.26-0.33,0.5-0.54,0.74
						c-0.21,0.23-0.44,0.46-0.68,0.66c-0.25,0.21-0.51,0.4-0.78,0.58c-0.27,0.18-0.55,0.34-0.83,0.48
						c-0.07-0.14-0.13-0.27-0.19-0.37c-0.06-0.11-0.12-0.23-0.18-0.36c0.23-0.12,0.46-0.26,0.69-0.42c0.24-0.15,0.47-0.32,0.69-0.5
						c0.22-0.18,0.43-0.37,0.62-0.58c0.19-0.21,0.36-0.42,0.49-0.64c0.14-0.22,0.24-0.46,0.31-0.7c0.05-0.17,0.07-0.35,0.07-0.52
						c0-0.07,0-0.15-0.01-0.23c-0.02-0.19-0.06-0.39-0.1-0.61c-0.05-0.21-0.1-0.43-0.16-0.64c-0.06-0.21-0.12-0.41-0.17-0.6
						c-0.06-0.19-0.11-0.36-0.15-0.5l0.79-0.24c0.13,0.39,0.27,0.73,0.4,1.01c0.13,0.28,0.27,0.51,0.41,0.7
						c0.14,0.18,0.29,0.31,0.44,0.4c0.15,0.09,0.32,0.13,0.49,0.13h0.11v0.82h-0.11c-0.05,0-0.12,0-0.21-0.01s-0.18-0.02-0.29-0.06
						c-0.11-0.03-0.21-0.09-0.32-0.16c-0.11-0.07-0.21-0.18-0.3-0.31V114.83z"/>
					<path class="st12" d="M118.87,114.26v0.82h-4.99v-0.82H118.87z"/>
					<path class="st12" d="M123.65,114.26v0.82h-4.99v-0.82H123.65z"/>
					<path class="st12" d="M123.44,114.26h0.66c0.2,0,0.41,0,0.62-0.01c0.21-0.01,0.41-0.02,0.61-0.05c0.2-0.03,0.38-0.07,0.55-0.13
						c0.17-0.06,0.32-0.14,0.45-0.25s0.23-0.24,0.3-0.4s0.11-0.35,0.11-0.59c0-0.28-0.07-0.55-0.21-0.82
						c-0.14-0.27-0.32-0.54-0.55-0.81c-0.23-0.27-0.5-0.55-0.81-0.84c-0.31-0.29-0.64-0.59-0.98-0.9l0.11-0.96l4.18-1.79
						c0.06,0.13,0.11,0.26,0.17,0.39c0.06,0.12,0.11,0.25,0.16,0.38l-3.84,1.61c0.2,0.17,0.41,0.35,0.64,0.55s0.44,0.42,0.65,0.65
						c0.24,0.26,0.43,0.51,0.59,0.75c0.16,0.24,0.29,0.47,0.39,0.69c0.1,0.22,0.17,0.43,0.21,0.63c0.04,0.2,0.06,0.38,0.06,0.56
						c0,0.32-0.06,0.61-0.19,0.87c-0.13,0.27-0.31,0.49-0.54,0.68c-0.23,0.19-0.5,0.34-0.81,0.44c-0.31,0.11-0.65,0.16-1.01,0.16
						h-1.51V114.26z M128.27,105.85l-4.12,1.74l0.04-0.56l3.88-1.62L128.27,105.85z"/>
					<path class="st12" d="M63.52,126.66c-0.34,0-0.69-0.01-1.04-0.04c-0.35-0.03-0.69-0.08-1.02-0.14
						c-0.33-0.07-0.64-0.15-0.93-0.26c-0.29-0.11-0.55-0.24-0.78-0.4c-0.23-0.16-0.41-0.35-0.56-0.56
						c-0.15-0.22-0.24-0.46-0.27-0.75c-0.01-0.08-0.02-0.17-0.02-0.26c0-0.21,0.04-0.46,0.11-0.75c0.07-0.3,0.23-0.66,0.47-1.09
						l0.66,0.5c-0.02,0.04-0.06,0.1-0.1,0.18c-0.04,0.08-0.09,0.17-0.13,0.28c-0.05,0.1-0.09,0.22-0.12,0.33
						c-0.04,0.12-0.06,0.24-0.08,0.36c-0.01,0.07-0.02,0.13-0.02,0.2c0,0.05,0.01,0.11,0.02,0.19c0.01,0.08,0.05,0.16,0.11,0.25
						c0.12,0.16,0.28,0.31,0.5,0.45c0.22,0.14,0.48,0.26,0.79,0.36s0.67,0.18,1.07,0.24c0.4,0.06,0.85,0.09,1.33,0.09
						c0.28,0,0.6-0.01,0.94-0.04c0.34-0.02,0.69-0.07,1.04-0.13c0.35-0.06,0.71-0.15,1.06-0.26c0.35-0.11,0.69-0.25,1-0.42
						c-0.01-0.15-0.04-0.31-0.09-0.47c-0.04-0.16-0.1-0.32-0.16-0.47c-0.06-0.15-0.12-0.3-0.19-0.45c-0.07-0.14-0.14-0.28-0.21-0.4
						c-0.07-0.12-0.13-0.23-0.18-0.32c-0.06-0.09-0.1-0.17-0.13-0.22l0.7-0.45c0.03,0.06,0.08,0.14,0.15,0.25
						c0.06,0.11,0.14,0.24,0.22,0.39c0.08,0.15,0.16,0.31,0.24,0.49c0.08,0.18,0.15,0.35,0.22,0.54c0.07,0.18,0.12,0.36,0.16,0.53
						c0.03,0.15,0.04,0.28,0.04,0.41c0,0.02,0,0.05,0,0.07c-0.01,0.19-0.08,0.35-0.18,0.5c-0.11,0.15-0.25,0.28-0.43,0.4
						c-0.18,0.12-0.39,0.22-0.62,0.31c-0.23,0.09-0.48,0.17-0.74,0.23c-0.26,0.07-0.52,0.12-0.79,0.16s-0.53,0.08-0.78,0.1
						c-0.25,0.02-0.48,0.04-0.7,0.05C63.86,126.65,63.67,126.66,63.52,126.66z M63.44,121.59l-0.77,0.77l-0.78-0.77l0.77-0.77
						L63.44,121.59z M65.31,121.6l-0.76,0.77l-0.78-0.78l0.77-0.77L65.31,121.6z"/>
					<path class="st12" d="M71.94,126.66c-0.32,0-0.61-0.03-0.86-0.1c-0.25-0.07-0.47-0.18-0.64-0.33c-0.18-0.15-0.31-0.35-0.4-0.59
						c-0.09-0.24-0.14-0.53-0.14-0.88c0-0.26,0-0.55,0-0.87c0-0.32,0-0.65,0-1s0-0.69-0.01-1.05c-0.01-0.36-0.01-0.7-0.02-1.04
						c-0.01-0.34-0.03-0.65-0.05-0.95c-0.02-0.3-0.05-0.57-0.08-0.8l0.82-0.15c0.03,0.19,0.06,0.41,0.08,0.66
						c0.02,0.25,0.04,0.53,0.05,0.82c0.01,0.29,0.02,0.6,0.03,0.91c0,0.31,0.01,0.62,0.01,0.93c0,0.43,0,0.85,0,1.25
						c0,0.13,0,0.27,0,0.41c0,0.27,0,0.53,0,0.8c0,0.23,0.02,0.42,0.06,0.56c0.04,0.15,0.1,0.27,0.19,0.36
						c0.09,0.09,0.21,0.15,0.36,0.19c0.15,0.04,0.33,0.05,0.56,0.05h0.15v0.82H71.94z"/>
					<path class="st12" d="M76.55,123.42c-0.08-0.06-0.16-0.12-0.23-0.17c-0.08-0.05-0.16-0.11-0.25-0.16
						c-0.15-0.08-0.31-0.16-0.49-0.23c-0.18-0.07-0.37-0.11-0.57-0.11c-0.22,0-0.42,0.04-0.58,0.11c-0.17,0.08-0.31,0.18-0.42,0.3
						c-0.11,0.12-0.2,0.27-0.26,0.43c-0.06,0.16-0.08,0.33-0.08,0.5c0,0.24,0.05,0.45,0.16,0.65c0.1,0.19,0.24,0.36,0.42,0.5
						c0.17,0.14,0.38,0.24,0.6,0.3c0.18,0.06,0.37,0.08,0.57,0.08c0.05,0,0.1,0,0.15-0.01c0.17-0.01,0.33-0.03,0.49-0.04
						c0.16-0.02,0.3-0.04,0.43-0.06c0.13-0.02,0.25-0.04,0.35-0.06c0.1-0.02,0.18-0.03,0.23-0.04l0.1,0.8
						c-0.2,0.05-0.42,0.1-0.67,0.15c-0.25,0.05-0.54,0.09-0.86,0.13c-0.33,0.04-0.7,0.07-1.12,0.1c-0.42,0.02-0.89,0.04-1.42,0.04
						l-1.25,0.01v-0.82l1.87-0.02c-0.32-0.29-0.54-0.57-0.67-0.85s-0.19-0.56-0.19-0.86c0-0.3,0.05-0.57,0.16-0.84
						c0.11-0.26,0.26-0.49,0.45-0.69c0.19-0.2,0.42-0.36,0.69-0.47c0.26-0.12,0.55-0.17,0.86-0.17c0.27,0,0.51,0.04,0.74,0.11
						c0.23,0.07,0.43,0.15,0.61,0.25c0.18,0.09,0.32,0.19,0.44,0.28c0.12,0.09,0.21,0.17,0.26,0.22L76.55,123.42z"/>
					<path class="st12" d="M83.71,123.81c0.02,0.19,0.03,0.38,0.05,0.55c0.01,0.18,0.03,0.34,0.06,0.49
						c0.02,0.15,0.06,0.28,0.11,0.41c0.05,0.12,0.12,0.22,0.2,0.31c0.09,0.09,0.2,0.15,0.33,0.2c0.14,0.05,0.3,0.07,0.51,0.07h0.22
						v0.82h-0.32c-0.11,0-0.23-0.01-0.37-0.02c-0.14-0.01-0.29-0.05-0.44-0.11c-0.15-0.06-0.29-0.16-0.43-0.29
						c-0.14-0.13-0.26-0.32-0.36-0.56c-0.22,0.28-0.48,0.51-0.79,0.7c-0.31,0.19-0.63,0.34-0.98,0.45
						c-0.35,0.11-0.71,0.18-1.09,0.21c-0.16,0.01-0.32,0.02-0.48,0.02c-0.21,0-0.42-0.01-0.63-0.04c0.03-0.15,0.05-0.29,0.08-0.41
						c0.02-0.12,0.05-0.26,0.07-0.4c0.2,0.03,0.41,0.04,0.62,0.04c0.06,0,0.17,0,0.34-0.01c0.17-0.01,0.37-0.05,0.62-0.13
						c-0.07-0.39-0.19-0.8-0.33-1.22c-0.15-0.42-0.32-0.83-0.5-1.24c-0.19-0.41-0.38-0.8-0.59-1.17c-0.2-0.37-0.4-0.71-0.58-1.02
						c-0.18-0.3-0.35-0.57-0.49-0.78c-0.14-0.22-0.25-0.37-0.31-0.46l0.68-0.48c0.05,0.07,0.11,0.16,0.2,0.29
						c0.08,0.13,0.18,0.28,0.3,0.46c0.11,0.18,0.24,0.38,0.37,0.6c0.13,0.22,0.27,0.45,0.41,0.7c0.42,0.75,0.77,1.45,1.04,2.12
						c0.27,0.67,0.47,1.31,0.6,1.92c0.15-0.07,0.3-0.16,0.43-0.27c0.14-0.11,0.26-0.25,0.36-0.42s0.18-0.37,0.22-0.6
						c0.03-0.14,0.05-0.3,0.05-0.48c0-0.11-0.01-0.23-0.02-0.36c-0.04-0.42-0.08-0.83-0.11-1.23c-0.03-0.4-0.07-0.8-0.11-1.19
						c-0.04-0.4-0.07-0.79-0.11-1.18c-0.04-0.39-0.08-0.79-0.12-1.19c0.15-0.01,0.29-0.03,0.42-0.04c0.12-0.01,0.26-0.03,0.41-0.04
						c0.01,0.06,0.02,0.18,0.04,0.34c0.02,0.17,0.03,0.37,0.06,0.61c0.02,0.24,0.04,0.51,0.07,0.82c0.02,0.31,0.05,0.63,0.08,0.98
						c0.03,0.35,0.06,0.71,0.09,1.09C83.63,123.04,83.67,123.43,83.71,123.81z"/>
					<path class="st12" d="M84.97,125.84h0.94c0.01-0.02,0.03-0.05,0.06-0.09c0.03-0.04,0.05-0.08,0.07-0.12l0,0.01
						c0.06-0.11,0.14-0.25,0.25-0.42c0.11-0.18,0.26-0.38,0.45-0.62c0.04-0.24,0.07-0.52,0.09-0.85c0.02-0.33,0.03-0.73,0.04-1.18
						c0-0.06,0-0.12,0-0.18c0-0.37-0.01-0.75-0.03-1.16c-0.02-0.41-0.05-0.81-0.09-1.2l-0.11-1.13l0.86-0.15
						c0.08,0.61,0.14,1.22,0.17,1.84c0.04,0.62,0.06,1.26,0.06,1.93c0,0.06,0,0.14,0,0.23c0,0.09,0,0.19-0.01,0.28
						c0,0.1,0,0.19,0,0.28c0,0.09,0,0.17,0,0.24c0.48-0.45,0.93-0.79,1.36-1.04c0.43-0.25,0.82-0.41,1.19-0.49
						c0.14-0.03,0.29-0.05,0.44-0.05c0.12,0,0.28,0.02,0.47,0.05c0.19,0.04,0.4,0.12,0.62,0.26c0.22,0.14,0.41,0.32,0.55,0.54
						c0.15,0.22,0.23,0.47,0.26,0.76c0.01,0.08,0.01,0.17,0.01,0.24c0,0.31-0.06,0.6-0.17,0.88c-0.11,0.28-0.28,0.53-0.51,0.76
						c-0.23,0.23-0.5,0.42-0.8,0.58c-0.31,0.16-0.63,0.28-0.96,0.38c-0.33,0.09-0.67,0.16-1.01,0.2c-0.34,0.04-0.65,0.06-0.93,0.06
						l-3.12-0.01h-0.14V125.84z M86.86,125.83c0.06,0,0.16,0.01,0.32,0.01c0.16,0,0.39,0,0.68,0c0.26,0,0.54-0.01,0.84-0.03
						c0.3-0.02,0.59-0.06,0.88-0.12c0.29-0.06,0.57-0.14,0.84-0.24c0.27-0.1,0.5-0.24,0.71-0.41c0.21-0.17,0.38-0.37,0.5-0.61
						c0.13-0.24,0.2-0.52,0.21-0.85c-0.03-0.16-0.09-0.3-0.2-0.41c-0.1-0.11-0.23-0.19-0.37-0.26c-0.14-0.06-0.29-0.1-0.45-0.12
						c-0.06,0-0.12-0.01-0.17-0.01c-0.1,0-0.19,0.01-0.28,0.02c-0.37,0.08-0.77,0.27-1.2,0.57c-0.43,0.3-0.89,0.71-1.37,1.24v-0.01
						c-0.03,0.04-0.06,0.07-0.1,0.12c-0.03,0.04-0.09,0.11-0.15,0.19c-0.07,0.08-0.15,0.2-0.26,0.34
						C87.18,125.41,87.04,125.6,86.86,125.83z"/>
					<path class="st12" d="M94.11,126.66c0.04-0.58,0.06-1.12,0.08-1.62c0.02-0.5,0.02-0.99,0.02-1.47c0-0.66-0.01-1.26-0.03-1.81
						c-0.02-0.55-0.05-1.03-0.08-1.45c-0.03-0.42-0.06-0.76-0.09-1.04c-0.03-0.27-0.05-0.47-0.07-0.58l0.83-0.13
						c0.02,0.15,0.04,0.32,0.06,0.52c0.02,0.2,0.04,0.41,0.06,0.62c0.02,0.22,0.03,0.44,0.04,0.67c0.01,0.23,0.03,0.44,0.04,0.64
						c0.01,0.2,0.02,0.38,0.03,0.55c0.01,0.16,0.01,0.29,0.02,0.38c0.01,0.25,0.01,0.5,0.02,0.77c0.01,0.27,0.01,0.56,0.01,0.86
						c0,0.47-0.01,0.97-0.02,1.48c-0.01,0.51-0.04,1.06-0.08,1.64L94.11,126.66z"/>
					<path class="st12" d="M106.07,122.43c0.13,0,0.25,0.01,0.37,0.02c0.12,0.02,0.23,0.04,0.32,0.06s0.19,0.05,0.26,0.07
						c0.08,0.03,0.14,0.05,0.19,0.07c-0.04,0.07-0.07,0.14-0.1,0.21c-0.03,0.06-0.06,0.12-0.09,0.18c-0.03,0.06-0.06,0.12-0.09,0.18
						c-0.03,0.06-0.06,0.13-0.1,0.2c-0.07-0.03-0.18-0.06-0.31-0.09c-0.13-0.03-0.28-0.04-0.44-0.04c-0.02,0-0.04,0-0.06,0
						c-0.18,0-0.36,0.03-0.54,0.08c-0.18,0.06-0.35,0.14-0.52,0.25c-0.17,0.11-0.33,0.24-0.47,0.38c-0.14,0.15-0.27,0.3-0.37,0.46
						c-0.1,0.16-0.18,0.33-0.24,0.5c-0.06,0.17-0.09,0.33-0.09,0.49c0,0.19,0.04,0.35,0.13,0.47c0.08,0.12,0.19,0.22,0.32,0.3
						c0.13,0.08,0.28,0.14,0.43,0.18c0.16,0.04,0.31,0.08,0.46,0.12c0.19,0.05,0.38,0.1,0.57,0.16c0.19,0.05,0.35,0.13,0.5,0.22
						c0.14,0.09,0.26,0.21,0.35,0.36c0.09,0.15,0.13,0.33,0.13,0.56c0,0.34-0.07,0.63-0.2,0.89c-0.13,0.26-0.31,0.48-0.54,0.67
						c-0.22,0.19-0.48,0.34-0.77,0.47c-0.29,0.12-0.6,0.22-0.91,0.3c-0.32,0.08-0.64,0.13-0.96,0.16c-0.32,0.03-0.63,0.05-0.91,0.05
						c-0.52,0-1.01-0.06-1.45-0.19c-0.44-0.13-0.83-0.32-1.15-0.58c-0.33-0.26-0.58-0.58-0.76-0.96c-0.18-0.38-0.27-0.83-0.27-1.34
						c0-0.17,0.01-0.34,0.03-0.51c0.03-0.2,0.06-0.41,0.11-0.62c0.04-0.21,0.09-0.42,0.14-0.63c0.05-0.21,0.1-0.41,0.15-0.6
						c0.05-0.19,0.1-0.37,0.15-0.53c0.05-0.16,0.09-0.3,0.13-0.42c0.04-0.12,0.07-0.21,0.09-0.27c0.14,0.05,0.28,0.1,0.41,0.15
						c0.13,0.05,0.27,0.1,0.4,0.14c-0.07,0.22-0.15,0.46-0.22,0.7c-0.07,0.24-0.14,0.49-0.2,0.74c-0.06,0.25-0.12,0.49-0.17,0.74
						c-0.05,0.25-0.09,0.48-0.13,0.71c-0.01,0.06-0.01,0.12-0.02,0.19c-0.01,0.07-0.01,0.14-0.01,0.22c0,0.38,0.07,0.7,0.21,0.98
						c0.14,0.28,0.33,0.51,0.58,0.69c0.25,0.18,0.54,0.32,0.88,0.4c0.34,0.09,0.7,0.13,1.1,0.13c0.52,0,0.98-0.04,1.4-0.13
						s0.77-0.2,1.07-0.34c0.3-0.14,0.53-0.3,0.69-0.48c0.17-0.18,0.26-0.36,0.28-0.55c0-0.01,0-0.02,0-0.03
						c0-0.07-0.03-0.14-0.08-0.2c-0.05-0.06-0.13-0.11-0.22-0.16c-0.09-0.05-0.2-0.09-0.32-0.13s-0.24-0.07-0.36-0.1
						c-0.3-0.08-0.56-0.16-0.79-0.25c-0.23-0.09-0.43-0.2-0.59-0.34c-0.16-0.13-0.28-0.3-0.37-0.5c-0.08-0.2-0.13-0.44-0.13-0.73
						c0-0.28,0.04-0.55,0.12-0.81c0.08-0.26,0.19-0.51,0.33-0.75c0.14-0.23,0.31-0.45,0.51-0.64c0.19-0.2,0.41-0.36,0.64-0.5
						s0.47-0.25,0.72-0.33C105.56,122.46,105.81,122.43,106.07,122.43z"/>
					<path class="st12" d="M110.35,123.47c0.06,0.18,0.12,0.39,0.19,0.62c0.07,0.23,0.14,0.47,0.2,0.72
						c0.06,0.25,0.12,0.5,0.16,0.75c0.04,0.25,0.07,0.5,0.07,0.73c0,0.29-0.04,0.58-0.13,0.85c-0.09,0.28-0.21,0.54-0.36,0.8
						c-0.15,0.25-0.33,0.5-0.54,0.73c-0.21,0.23-0.44,0.45-0.68,0.66c-0.25,0.21-0.51,0.4-0.78,0.58c-0.28,0.18-0.56,0.34-0.84,0.48
						l-0.36-0.74c0.37-0.19,0.73-0.41,1.07-0.65c0.34-0.24,0.65-0.51,0.92-0.8c0.27-0.29,0.48-0.59,0.64-0.91
						c0.16-0.32,0.24-0.66,0.24-1.01c0-0.19-0.02-0.39-0.06-0.61c-0.04-0.21-0.09-0.43-0.15-0.66c-0.06-0.22-0.12-0.45-0.2-0.67
						c-0.07-0.22-0.14-0.44-0.2-0.64L110.35,123.47z"/>
					<path class="st12" d="M112,129.53c0.53-0.12,1.02-0.28,1.44-0.48c0.43-0.21,0.8-0.44,1.1-0.7c0.31-0.26,0.55-0.53,0.73-0.83
						c0.18-0.29,0.29-0.58,0.33-0.86c-0.12,0-0.23,0.01-0.34,0.01c-0.17,0-0.36,0-0.57-0.01s-0.44-0.03-0.68-0.07
						c-0.24-0.04-0.45-0.1-0.65-0.18c-0.2-0.08-0.36-0.19-0.5-0.32s-0.25-0.3-0.33-0.5c-0.08-0.2-0.12-0.43-0.12-0.71
						c0-0.17,0.02-0.35,0.06-0.54s0.09-0.37,0.16-0.56c0.07-0.18,0.15-0.36,0.25-0.52s0.21-0.31,0.34-0.44
						c0.13-0.12,0.27-0.22,0.43-0.3c0.16-0.08,0.33-0.11,0.52-0.11c0.26,0,0.5,0.06,0.71,0.17c0.21,0.11,0.4,0.27,0.57,0.46
						c0.17,0.19,0.31,0.41,0.44,0.66c0.12,0.25,0.22,0.51,0.31,0.77c0.08,0.27,0.14,0.54,0.18,0.81c0.04,0.27,0.06,0.52,0.06,0.76
						c0,0.4-0.05,0.77-0.16,1.12c-0.11,0.35-0.26,0.68-0.45,0.98c-0.19,0.3-0.42,0.57-0.68,0.82c-0.26,0.24-0.55,0.46-0.87,0.65
						c-0.32,0.19-0.65,0.34-1.01,0.47c-0.36,0.12-0.72,0.22-1.09,0.28L112,129.53z M114.2,123.23c-0.13,0-0.26,0.05-0.39,0.16
						c-0.13,0.11-0.24,0.24-0.34,0.4c-0.1,0.16-0.18,0.34-0.24,0.53c-0.06,0.19-0.09,0.37-0.09,0.54c0.02,0.17,0.07,0.31,0.16,0.43
						c0.09,0.11,0.21,0.2,0.35,0.27c0.14,0.07,0.3,0.12,0.47,0.16c0.17,0.03,0.35,0.06,0.53,0.07c0.18,0.01,0.36,0.02,0.53,0.02
						s0.33,0,0.46,0c0-0.16-0.01-0.33-0.04-0.52s-0.07-0.38-0.13-0.57c-0.06-0.19-0.13-0.37-0.21-0.55
						c-0.08-0.18-0.18-0.34-0.29-0.47c-0.11-0.14-0.23-0.25-0.36-0.33C114.49,123.27,114.35,123.23,114.2,123.23z"/>
					<path class="st12" d="M120.2,126.66c-0.32,0-0.61-0.03-0.86-0.1c-0.25-0.07-0.47-0.18-0.64-0.33c-0.18-0.15-0.31-0.35-0.4-0.59
						s-0.14-0.53-0.14-0.88c0-0.26,0-0.55,0-0.87c0-0.32,0-0.65,0-1s0-0.69-0.01-1.05c-0.01-0.36-0.01-0.7-0.02-1.04
						c-0.01-0.34-0.03-0.65-0.05-0.95c-0.02-0.3-0.05-0.57-0.08-0.8l0.82-0.15c0.03,0.19,0.06,0.41,0.08,0.66
						c0.02,0.25,0.04,0.53,0.05,0.82c0.01,0.29,0.02,0.6,0.03,0.91c0,0.31,0.01,0.62,0.01,0.93c0,0.43,0,0.85,0,1.25
						c0,0.13,0,0.27,0,0.41c0,0.27,0,0.53,0,0.8c0,0.23,0.02,0.42,0.06,0.56c0.04,0.15,0.1,0.27,0.19,0.36
						c0.09,0.09,0.21,0.15,0.36,0.19c0.15,0.04,0.33,0.05,0.56,0.05h0.15v0.82H120.2z"/>
					<path class="st12" d="M124.02,125.84v0.82h-0.11c-0.34,0-0.62-0.07-0.86-0.2s-0.43-0.3-0.6-0.51
						c-0.24,0.24-0.54,0.42-0.89,0.53c-0.35,0.12-0.78,0.17-1.28,0.17h-0.2v-0.82h0.2c0.63,0,1.08-0.12,1.37-0.35
						c0.28-0.23,0.43-0.57,0.43-1.03c0-0.19-0.01-0.38-0.04-0.58c-0.03-0.2-0.07-0.42-0.14-0.67c0.15-0.04,0.28-0.08,0.4-0.11
						c0.12-0.04,0.25-0.07,0.39-0.11c0.03,0.11,0.05,0.21,0.07,0.32c0.02,0.11,0.04,0.22,0.06,0.34c0.02,0.12,0.03,0.25,0.05,0.39
						c0.01,0.14,0.03,0.3,0.04,0.47c0.01,0.14,0.03,0.29,0.06,0.45c0.03,0.16,0.08,0.3,0.16,0.43c0.07,0.13,0.17,0.24,0.3,0.33
						c0.13,0.09,0.29,0.13,0.49,0.13H124.02z M122.55,121.03l-0.77,0.77l-0.77-0.77l0.77-0.77L122.55,121.03z"/>
					<path class="st12" d="M123.92,125.84c0.49,0,0.92-0.02,1.3-0.05c0.37-0.03,0.7-0.09,0.98-0.17c0.28-0.08,0.51-0.18,0.71-0.31
						c0.2-0.13,0.36-0.29,0.49-0.48c-0.23,0.02-0.45,0.03-0.66,0.03c-0.23,0-0.48-0.02-0.77-0.05c-0.29-0.03-0.56-0.13-0.8-0.28
						c-0.25-0.15-0.42-0.37-0.53-0.65c-0.07-0.18-0.1-0.38-0.1-0.62c0-0.13,0.01-0.28,0.03-0.43c0.03-0.21,0.09-0.43,0.18-0.65
						c0.09-0.22,0.2-0.43,0.34-0.61c0.14-0.18,0.3-0.33,0.48-0.45c0.18-0.12,0.38-0.17,0.6-0.17c0.22,0,0.43,0.05,0.62,0.14
						c0.19,0.09,0.36,0.22,0.51,0.38c0.15,0.16,0.29,0.35,0.4,0.56c0.12,0.21,0.21,0.43,0.29,0.66c0.08,0.23,0.14,0.47,0.18,0.71
						c0.04,0.24,0.06,0.46,0.06,0.67c0,0.35-0.05,0.65-0.16,0.92c-0.11,0.26-0.25,0.49-0.44,0.68c-0.19,0.19-0.41,0.35-0.67,0.48
						c-0.26,0.13-0.55,0.23-0.86,0.3c-0.31,0.08-0.65,0.13-1.01,0.16c-0.36,0.03-0.73,0.05-1.1,0.05h-0.18v-0.82H123.92z
						 M126.17,121.77c-0.06,0-0.13,0.02-0.22,0.07c-0.09,0.05-0.18,0.12-0.27,0.21c-0.09,0.09-0.18,0.22-0.26,0.36
						c-0.08,0.15-0.14,0.32-0.17,0.51c-0.02,0.09-0.03,0.18-0.03,0.26c0,0.14,0.04,0.27,0.11,0.39c0.07,0.12,0.19,0.21,0.36,0.28
						c0.17,0.07,0.36,0.11,0.57,0.12c0.21,0.01,0.42,0.02,0.62,0.02c0.07,0,0.16,0,0.26,0c0.1,0,0.2-0.01,0.32-0.02
						c0-0.12-0.02-0.26-0.05-0.42c-0.03-0.16-0.07-0.32-0.13-0.48c-0.05-0.16-0.12-0.32-0.2-0.48c-0.08-0.16-0.16-0.3-0.26-0.42
						c-0.09-0.12-0.2-0.22-0.31-0.3S126.3,121.77,126.17,121.77z M126.91,118.96l-0.77,0.77l-0.77-0.77l0.77-0.77L126.91,118.96z"/>
				</g>
			</g>
			<g>
				<path class="st12" d="M64.15,151.74c-0.88,0-1.68-0.11-2.4-0.34c-0.72-0.22-1.34-0.56-1.85-1.01c-0.51-0.45-0.91-1-1.2-1.67
					c-0.28-0.67-0.43-1.44-0.43-2.32c0-0.85,0.13-1.69,0.4-2.54c0.27-0.84,0.67-1.67,1.19-2.47l1.72,1.24
					c-0.1,0.14-0.22,0.34-0.36,0.62c-0.14,0.28-0.27,0.59-0.4,0.94c-0.13,0.35-0.23,0.73-0.32,1.12c-0.09,0.4-0.13,0.78-0.13,1.15
					c0,0.42,0.1,0.81,0.29,1.15c0.19,0.34,0.45,0.64,0.77,0.88c0.32,0.24,0.69,0.44,1.1,0.57c0.42,0.14,0.85,0.21,1.3,0.22
					c0.54,0.01,1.06-0.06,1.56-0.21c0.5-0.15,0.94-0.36,1.31-0.64c0.38-0.27,0.67-0.6,0.88-0.97c0.21-0.38,0.31-0.78,0.29-1.22
					c-0.01-0.22-0.05-0.47-0.12-0.74c-0.07-0.28-0.16-0.56-0.26-0.85c-0.1-0.29-0.21-0.57-0.33-0.86c-0.12-0.28-0.23-0.54-0.34-0.78
					c-0.1-0.23-0.2-0.44-0.27-0.61c-0.08-0.17-0.13-0.28-0.15-0.34l2.08-1.16c0.02,0.02,0.07,0.12,0.15,0.3
					c0.08,0.18,0.18,0.41,0.29,0.69c0.11,0.28,0.23,0.61,0.35,0.97s0.24,0.74,0.34,1.13c0.1,0.39,0.19,0.77,0.26,1.16
					c0.07,0.38,0.1,0.74,0.1,1.06c0,0.45-0.05,0.91-0.15,1.36c-0.1,0.45-0.26,0.88-0.47,1.29c-0.21,0.41-0.48,0.79-0.8,1.14
					c-0.32,0.35-0.7,0.65-1.13,0.91c-0.43,0.26-0.93,0.46-1.48,0.61C65.43,151.67,64.82,151.74,64.15,151.74z M64.21,142.53
					l-1.7-1.7l1.7-1.7l1.7,1.7L64.21,142.53z"/>
				<path class="st12" d="M74.73,146.47c-0.64,0-1.18-0.09-1.62-0.26c-0.44-0.17-0.81-0.41-1.09-0.71c-0.28-0.3-0.48-0.66-0.61-1.07
					c-0.13-0.41-0.19-0.86-0.19-1.34c0-0.25,0-0.55,0.02-0.92c0.01-0.37,0.02-0.79,0.02-1.27s0-1.01-0.01-1.58
					c-0.01-0.57-0.02-1.15-0.04-1.73c-0.02-0.58-0.06-1.13-0.1-1.66c-0.04-0.53-0.1-0.99-0.18-1.39l2.29-0.7
					c0.07,0.34,0.12,0.73,0.16,1.19c0.04,0.46,0.08,0.94,0.1,1.44c0.03,0.5,0.04,1,0.06,1.51c0.01,0.51,0.02,0.98,0.03,1.41
					c0,0.38,0,0.79-0.02,1.21c-0.02,0.42-0.03,0.82-0.04,1.21c-0.01,0.39-0.01,0.73,0.01,1.05c0.02,0.31,0.07,0.55,0.14,0.71
					c0.05,0.12,0.1,0.21,0.17,0.27c0.07,0.06,0.15,0.11,0.24,0.14c0.09,0.03,0.19,0.05,0.3,0.05c0.11,0.01,0.23,0.01,0.36,0.01h0.21
					v2.42H74.73z"/>
				<path class="st12" d="M81.47,144.04v2.42H81.3c-0.25,0-0.49-0.02-0.72-0.06c-0.24-0.04-0.46-0.1-0.67-0.17
					c-0.21-0.07-0.4-0.16-0.58-0.26c-0.18-0.1-0.33-0.21-0.46-0.33c-0.24,0.18-0.51,0.33-0.82,0.44c-0.31,0.11-0.64,0.19-0.98,0.25
					c-0.34,0.06-0.7,0.1-1.06,0.11c-0.37,0.02-0.72,0.03-1.08,0.03h-0.28v-2.42h0.28c0.37,0,0.7-0.01,0.98-0.03
					c0.29-0.02,0.54-0.06,0.76-0.11s0.4-0.12,0.55-0.2c0.15-0.08,0.27-0.19,0.36-0.32c0.12-0.16,0.19-0.34,0.22-0.54
					s0.03-0.4,0.01-0.62c-0.02-0.21-0.06-0.42-0.12-0.64c-0.06-0.21-0.11-0.41-0.15-0.61l2.23-0.64c0.06,0.23,0.11,0.44,0.16,0.63
					c0.04,0.19,0.08,0.37,0.12,0.55c0.03,0.18,0.06,0.36,0.09,0.54c0.03,0.18,0.05,0.38,0.08,0.6c0.02,0.14,0.05,0.29,0.08,0.45
					c0.03,0.16,0.09,0.31,0.16,0.45c0.08,0.14,0.18,0.25,0.32,0.34c0.14,0.09,0.31,0.14,0.53,0.14H81.47z M78.21,137.34l-1.44,1.44
					l-1.49-1.48l1.47-1.48l1.46,1.46l1.44-1.44l1.49,1.48l-1.47,1.48L78.21,137.34z"/>
				<path class="st12" d="M81.32,144.04c0.38,0,0.71-0.1,0.97-0.31c0.26-0.21,0.49-0.48,0.67-0.82c0.19-0.34,0.34-0.72,0.47-1.15
					c0.13-0.43,0.25-0.87,0.37-1.32l2.04,0.37c-0.04,0.18-0.09,0.39-0.15,0.62c-0.06,0.24-0.11,0.48-0.16,0.74
					c-0.05,0.26-0.09,0.5-0.12,0.75c-0.03,0.24-0.04,0.46-0.02,0.64s0.07,0.33,0.14,0.43c0.08,0.1,0.19,0.14,0.35,0.12
					c0.2-0.02,0.39-0.09,0.56-0.21c0.17-0.13,0.32-0.29,0.45-0.49c0.13-0.2,0.25-0.42,0.35-0.67c0.1-0.25,0.19-0.51,0.26-0.77
					c0.07-0.27,0.14-0.53,0.18-0.79c0.05-0.26,0.09-0.5,0.12-0.71l1.95,0.33c0,0.15-0.02,0.34-0.05,0.57
					c-0.03,0.22-0.06,0.46-0.08,0.71c-0.03,0.25-0.04,0.5-0.04,0.74c0,0.25,0.03,0.47,0.08,0.67c0.06,0.2,0.15,0.36,0.28,0.48
					c0.13,0.12,0.31,0.18,0.55,0.18c0.14,0,0.29-0.02,0.44-0.07c0.15-0.05,0.28-0.12,0.4-0.21c0.12-0.09,0.21-0.2,0.29-0.32
					c0.07-0.12,0.11-0.26,0.11-0.41c0-0.27-0.04-0.56-0.13-0.88c-0.09-0.32-0.19-0.64-0.32-0.95c-0.13-0.31-0.25-0.61-0.39-0.89
					c-0.13-0.28-0.25-0.52-0.34-0.71l1.9-1.06l0.16,0.35c0.08,0.16,0.16,0.36,0.26,0.6c0.1,0.24,0.2,0.5,0.3,0.79
					c0.1,0.29,0.2,0.6,0.29,0.92c0.09,0.32,0.16,0.64,0.21,0.97c0.06,0.33,0.08,0.65,0.08,0.97c0,0.51-0.07,0.97-0.21,1.38
					c-0.14,0.41-0.35,0.76-0.64,1.04c-0.28,0.29-0.64,0.51-1.06,0.67c-0.43,0.16-0.93,0.24-1.5,0.24c-0.28,0-0.53-0.03-0.75-0.08
					c-0.22-0.05-0.43-0.13-0.61-0.22c-0.18-0.09-0.34-0.2-0.48-0.33c-0.14-0.13-0.26-0.27-0.37-0.41c-0.12,0.16-0.25,0.3-0.39,0.43
					c-0.14,0.12-0.3,0.23-0.48,0.32c-0.18,0.09-0.38,0.16-0.61,0.21c-0.22,0.05-0.48,0.08-0.77,0.08c-0.25,0-0.48-0.02-0.68-0.07
					c-0.2-0.05-0.39-0.12-0.56-0.21c-0.17-0.09-0.32-0.2-0.46-0.33c-0.14-0.13-0.26-0.27-0.38-0.43c-0.11,0.13-0.23,0.26-0.37,0.37
					c-0.14,0.11-0.3,0.22-0.49,0.3c-0.19,0.09-0.41,0.15-0.66,0.2c-0.25,0.05-0.54,0.07-0.87,0.07h-0.28v-2.42H81.32z"/>
				<path class="st12" d="M95.67,143.3c0.29,0.14,0.58,0.26,0.89,0.38c0.3,0.11,0.6,0.21,0.88,0.28c0.29,0.07,0.53,0.11,0.74,0.11
					c0.12,0,0.28-0.01,0.49-0.03c0.21-0.02,0.41-0.06,0.61-0.12c0.2-0.06,0.38-0.14,0.53-0.25s0.23-0.25,0.24-0.42
					c0-0.2-0.05-0.42-0.18-0.67c-0.13-0.25-0.29-0.51-0.51-0.79c-0.21-0.27-0.46-0.55-0.74-0.83c-0.28-0.28-0.57-0.55-0.86-0.8
					c-0.3-0.26-0.59-0.5-0.89-0.72c-0.3-0.22-0.57-0.41-0.82-0.57l1.36-2.01c0.5,0.35,0.99,0.74,1.47,1.17
					c0.49,0.43,0.94,0.89,1.35,1.37c0.41,0.48,0.77,0.98,1.07,1.49c0.3,0.51,0.52,1.03,0.65,1.55c0.04,0.15,0.07,0.3,0.08,0.45
					c0.02,0.15,0.02,0.29,0.02,0.43c0,0.47-0.09,0.91-0.28,1.31s-0.44,0.74-0.77,1.03c-0.33,0.29-0.72,0.51-1.18,0.67
					c-0.46,0.16-0.97,0.24-1.52,0.24c-0.04,0-0.08,0-0.12,0c-0.04,0-0.08,0-0.12,0c-0.35,0-0.71-0.04-1.08-0.11
					c-0.37-0.07-0.74-0.17-1.1-0.3c-0.36-0.12-0.71-0.27-1.05-0.43c-0.34-0.16-0.66-0.33-0.95-0.51l1-2.31
					C95.13,143.03,95.38,143.16,95.67,143.3z"/>
				<path class="st12" d="M106.7,141.89c0.12,0.38,0.23,0.76,0.33,1.15c0.1,0.39,0.18,0.79,0.25,1.18c0.07,0.39,0.1,0.76,0.1,1.1
					c0,0.48-0.07,0.95-0.2,1.41c-0.13,0.46-0.31,0.9-0.55,1.33c-0.24,0.43-0.52,0.84-0.85,1.23c-0.33,0.39-0.69,0.76-1.09,1.11
					s-0.82,0.67-1.28,0.97c-0.45,0.3-0.92,0.57-1.41,0.81l-1.39-1.94c0.37-0.18,0.74-0.39,1.11-0.62c0.38-0.23,0.74-0.48,1.08-0.75
					c0.34-0.27,0.67-0.54,0.97-0.83c0.3-0.29,0.56-0.59,0.78-0.89c0.22-0.3,0.4-0.61,0.52-0.92s0.19-0.61,0.19-0.91
					c0-0.21-0.03-0.45-0.09-0.7c-0.06-0.25-0.14-0.52-0.24-0.81c-0.1-0.29-0.22-0.59-0.36-0.92c-0.14-0.32-0.28-0.67-0.44-1.04
					l2.21-1.01C106.47,141.17,106.58,141.51,106.7,141.89z"/>
				<path class="st12" d="M108.56,145.19c0.03-0.45,0.05-0.89,0.07-1.33c0.02-0.44,0.03-0.87,0.03-1.28c0-0.41,0-0.79-0.02-1.14
					c-0.03-0.72-0.06-1.36-0.09-1.91c-0.03-0.55-0.06-1.04-0.08-1.46c-0.03-0.42-0.06-0.8-0.08-1.11c-0.03-0.32-0.06-0.61-0.09-0.88
					c-0.03-0.27-0.06-0.51-0.1-0.75c-0.04-0.23-0.07-0.47-0.11-0.72l2.37-0.78c0.11,0.68,0.2,1.37,0.27,2.07
					c0.07,0.69,0.12,1.36,0.16,2c0.04,0.64,0.06,1.23,0.07,1.77c0.01,0.55,0.02,1.01,0.02,1.4c0,0.35,0,0.73,0,1.14
					c0,0.41-0.01,0.83-0.02,1.27c-0.01,0.44-0.02,0.88-0.03,1.33c-0.02,0.45-0.04,0.89-0.07,1.32l-2.37,0.37
					C108.51,146.07,108.53,145.63,108.56,145.19z"/>
				<path class="st12" d="M117.43,146.47c-0.11,0-0.26-0.01-0.44-0.02c-0.18-0.02-0.39-0.07-0.63-0.17
					c-0.11,0.63-0.32,1.23-0.63,1.8c-0.31,0.57-0.69,1.1-1.15,1.6c-0.45,0.5-0.97,0.96-1.55,1.37c-0.58,0.42-1.2,0.79-1.86,1.13
					l-1.4-1.94c0.36-0.18,0.73-0.38,1.1-0.6c0.37-0.22,0.72-0.45,1.05-0.69c0.33-0.24,0.65-0.5,0.93-0.76
					c0.29-0.26,0.54-0.54,0.75-0.82c0.21-0.28,0.38-0.57,0.51-0.86c0.12-0.29,0.18-0.59,0.18-0.89c0-0.2-0.04-0.45-0.11-0.76
					c-0.08-0.31-0.17-0.64-0.29-0.99c-0.12-0.35-0.25-0.71-0.39-1.06c-0.14-0.36-0.28-0.68-0.41-0.98l2.21-0.97
					c0.2,0.61,0.4,1.12,0.59,1.53c0.19,0.41,0.37,0.74,0.54,0.98c0.17,0.25,0.34,0.42,0.5,0.52c0.16,0.1,0.32,0.15,0.48,0.15h0.18
					v2.42H117.43z M114.21,139.36l-1.7-1.7l1.7-1.7l1.7,1.7L114.21,139.36z"/>
				<path class="st12" d="M117.25,144.04h0.47c0.06,0,0.12,0,0.2-0.01c0.07,0,0.17-0.01,0.28-0.02c0.11,0,0.26-0.01,0.45-0.02
					c-0.18-0.31-0.31-0.63-0.41-0.98c-0.09-0.34-0.14-0.69-0.14-1.05c0-0.54,0.1-1.06,0.31-1.56c0.2-0.5,0.51-0.93,0.93-1.28
					l-0.4-0.22l1.48-2.18c0.65,0.34,1.29,0.66,1.91,0.96c0.63,0.3,1.22,0.58,1.8,0.84c0.49,0.23,0.92,0.42,1.29,0.59
					c0.38,0.17,0.71,0.34,1.01,0.51c0.3,0.17,0.57,0.34,0.81,0.52c0.24,0.18,0.46,0.4,0.67,0.64c0.27,0.34,0.46,0.7,0.57,1.1
					c0.12,0.4,0.18,0.78,0.18,1.16c0,0.57-0.15,1.11-0.44,1.62s-0.73,0.93-1.3,1.28c-0.16,0.09-0.35,0.17-0.59,0.24
					c-0.23,0.07-0.47,0.12-0.73,0.16c-0.25,0.04-0.5,0.08-0.75,0.1c-0.25,0.02-0.46,0.03-0.64,0.03c-0.21,0-0.45-0.01-0.7-0.03
					c-0.25-0.02-0.5-0.05-0.75-0.08s-0.5-0.09-0.74-0.15c-0.24-0.06-0.46-0.13-0.66-0.21c-0.25,0.07-0.52,0.14-0.82,0.19
					c-0.3,0.06-0.62,0.1-0.96,0.14c-0.33,0.04-0.68,0.07-1.03,0.09c-0.35,0.02-0.69,0.03-1.03,0.03h-0.28V144.04z M121.69,140.29
					c-0.16-0.03-0.34,0.02-0.52,0.15c-0.19,0.12-0.36,0.28-0.51,0.47c-0.15,0.19-0.28,0.41-0.37,0.64
					c-0.09,0.23-0.13,0.45-0.11,0.65c0.02,0.13,0.07,0.27,0.15,0.41c0.09,0.14,0.19,0.27,0.31,0.4s0.25,0.25,0.39,0.34
					c0.14,0.1,0.27,0.17,0.38,0.22c0.19-0.02,0.38-0.07,0.57-0.14c0.19-0.07,0.36-0.18,0.51-0.32s0.27-0.33,0.36-0.55
					c0.09-0.22,0.14-0.5,0.14-0.83c0-0.17-0.05-0.33-0.14-0.5c-0.09-0.16-0.21-0.31-0.34-0.45c-0.13-0.14-0.27-0.25-0.43-0.34
					C121.93,140.36,121.8,140.31,121.69,140.29z M125,141.41c0,0.26-0.03,0.51-0.08,0.76c-0.05,0.25-0.12,0.5-0.21,0.74
					c-0.09,0.24-0.19,0.47-0.3,0.69c-0.11,0.22-0.23,0.42-0.35,0.6h0.07c0.38,0,0.72-0.01,1.03-0.04c0.31-0.03,0.58-0.08,0.81-0.17
					c0.23-0.08,0.41-0.2,0.55-0.35c0.14-0.15,0.22-0.35,0.24-0.6c0.01-0.12-0.04-0.26-0.15-0.4c-0.11-0.15-0.26-0.29-0.43-0.44
					c-0.18-0.15-0.37-0.29-0.59-0.43C125.39,141.64,125.19,141.52,125,141.41z"/>
			</g>
		</g>
	</g>
</g>
</svg>
